# xmcd
#
# Track frame offsets:
#	150
#	12232
#	22656
#	36167
#	47110
#	61700
#	76428
#	88459
#	100584
#	112453
#	130296
#	139508
#	149080
#	160347
#	177501
#	188382
#	201828
#	216584
#	227324
#	241053
#
# Disc length: 3385
#
# Revision: 4
# Processed by: cddbd v1.5.1PL0 Copyright (c) Steve Scherf et al.
# Submitted via: ExactAudioCopy v0.90b4
# Normalized: r3:DSETVAR1
#
DISCID=150d3714
DTITLE=Various Artist - Country Memories - Disc 1
DYEAR=1993
DGENRE=Country
TTITLE0=Tammy  Wynette - Stand by Your Man
TTITLE1=Willie Nelson - Blue Eyes Crying in the Rain
TTITLE2=Loretta Lynn - Coal Miner's Daughter
TTITLE3=Conway Twitty - Hello Darlin'
TTITLE4=Glenn Campbell - Rhinestone Cowboy
TTITLE5=George Jones - He Stopped Loving Her Today
TTITLE6=Charlie Rich - The Most Beautiful Girl
TTITLE7=Merle Haggard - If We Make it Through December
TTITLE8=Conway Twitty and Loretta Lynn - After the Fire is Gone
TTITLE9=Bobby Goldsboro - Honey
TTITLE10=Charlie Pride - Kiss an Angel Good Mornin'
TTITLE11=Tom T. Hall - I Love
TTITLE12=Loretta Lynn and Conway Twitty - Louisiana Woman, Mississippi Man
TTITLE13=Ray Price - For the Good Times
TTITLE14=Buck Owens - Together Again
TTITLE15=Patsy Cline - She's Got You
TTITLE16=Jeanne Pruett - Satin Sheets
TTITLE17=Johnny Cash - Daddy Sang Bass
TTITLE18=Sonny James - It's the Little Things
TTITLE19=Mel Tillis - Good Woman Blues
EXTD=
EXTT0=
EXTT1=
EXTT2=
EXTT3=
EXTT4=
EXTT5=
EXTT6=
EXTT7=
EXTT8=
EXTT9=
EXTT10=
EXTT11=
EXTT12=
EXTT13=
EXTT14=
EXTT15=
EXTT16=
EXTT17=
EXTT18=
EXTT19=
PLAYORDER=
